<?xml version="1.0" ?><svg baseProfile="tiny" overflow="visible" version="1.1" viewBox="0 0 512 512" xml:space="preserve" xmlns="http://www.w3.org/2000/svg" xmlns:xlink="http://www.w3.org/1999/xlink"><g id="Layer_1"/><g id="Layer_2"/><g id="Layer_3"/><g id="Layer_4"/><g id="Layer_5"/><g id="Layer_6"/><g id="Layer_7"/><g id="Layer_8"/><g id="Layer_9"/><g id="Layer_10"/><g id="Layer_11"/><g id="Layer_12"/><g id="Layer_13"/><g id="Layer_14"/><g id="Layer_15"/><g id="Layer_16"/><g id="Layer_17"/><g id="Layer_18"/><g id="Layer_19"/><g id="Layer_20"/><g id="Layer_21"/><g id="Layer_22"/><g id="Layer_23"/><g id="Layer_24"/><g id="Layer_25"/><g id="Layer_26"/><g id="Layer_27"/><g id="Layer_28"/><g id="Layer_29"/><g id="Layer_30"/><g id="Layer_31"/><g id="Layer_32"/><g id="Layer_33"/><g id="Layer_34"/><g id="Layer_35"/><g id="Layer_36"/><g id="Layer_37"/><g id="Layer_38"/><g id="Layer_39"/><g id="Layer_40"/><g id="Layer_41"/><g id="Layer_42"/><g id="Layer_43"/><g id="Layer_44"/><g id="Layer_45"/><g id="Layer_46"/><g id="Layer_47"/><g id="Layer_48"/><g id="Layer_49"/><g id="Layer_50"><path d="M285.655,140.84V32.301c0-2.681-2.173-4.853-4.853-4.853h-44.57c-2.68,0-4.853,2.173-4.853,4.853v108.54     c0,16.798-13.668,30.416-30.528,30.416h-4.707c-10.351,0-18.743,8.36-18.743,18.674v283.94c0,2.681,2.173,4.853,4.853,4.853     h147.82c2.681,0,4.853-2.173,4.853-4.853V189.93c0-10.313-8.391-18.674-18.743-18.674h0     C299.323,171.256,285.655,157.639,285.655,140.84z" fill="#FFC4BF"/><path d="M285.655,92.807V32.301c0-2.681-2.173-4.853-4.853-4.853h-44.57c-2.68,0-4.853,2.173-4.853,4.853v60.506     H285.655z" fill="#FD7A6E"/><rect fill="#FD7A6E" height="139.767" width="157.527" x="177.399" y="248.729"/></g><path d="M316.184,171.256L316.184,171.256c-16.86,0-30.528-13.618-30.528-30.416V32.301    c0-2.68-2.173-4.853-4.853-4.853h-19.414c2.681,0,4.853,2.173,4.853,4.853v108.54c0,16.798,13.668,30.416,30.528,30.416h0    c10.351,0,18.743,8.36,18.743,18.674v283.94c0,2.681-2.173,4.853-4.853,4.853h19.414c2.68,0,4.853-2.173,4.853-4.853V189.93    C334.926,179.617,326.535,171.256,316.184,171.256z" fill="#FFAAA1"/><path d="M280.802,27.447h-19.414c2.681,0,4.853,2.173,4.853,4.853v60.506h19.414V32.301    C285.655,29.62,283.482,27.447,280.802,27.447z" fill="#FB695B"/><rect fill="#FB695B" height="139.767" width="19.414" x="315.512" y="248.729"/></svg>