<?xml version="1.0" ?><svg viewBox="9.4 0 32 32" xmlns="http://www.w3.org/2000/svg"><defs><style>.cls-1{fill:#9d66d5;}.cls-2{fill:#f6e781;}.cls-3{fill:#deddda;}.cls-4{fill:#efecef;}.cls-5{fill:#8659b9;}.cls-6{fill:#23232b;}</style></defs><g id="Wine"><path class="cls-1" d="M23.68,4.62v5.61a2.68,2.68,0,0,1-1.13,2.23l-.24.17A3.14,3.14,0,0,0,21,15.22V28.79A1.17,1.17,0,0,0,22.12,30h6.76A1.17,1.17,0,0,0,30,28.79V15.22a3.14,3.14,0,0,0-1.31-2.59l-.25-.17a2.72,2.72,0,0,1-1.13-2.23V4.62Z" id="rect1451-8"/><path class="cls-5" d="M25.05,4.62v5.61a2.72,2.72,0,0,0,1.13,2.23l.25.17a3.14,3.14,0,0,1,1.31,2.59V28.79A1.17,1.17,0,0,1,26.62,30h2.26A1.17,1.17,0,0,0,30,28.79V15.22a3.14,3.14,0,0,0-1.31-2.59l-.25-.17a2.72,2.72,0,0,1-1.13-2.23V4.62Z" id="path4564"/><path class="cls-4" d="M21,18.49V26h9V18.49Z" id="rect1464-1"/><path class="cls-3" d="M27.74,18.49V26H30V18.49Z" id="path4571"/><path class="cls-6" d="M29.12,12l-.25-.17a2,2,0,0,1-.81-1.62V4.62a.73.73,0,0,0-.57-.71l.34-1.77a.77.77,0,0,0-.16-.62.75.75,0,0,0-.58-.27H23.91a.75.75,0,0,0-.58.27.77.77,0,0,0-.16.62l.34,1.77a.74.74,0,0,0-.58.71v5.61a2,2,0,0,1-.8,1.62l-.25.17a3.87,3.87,0,0,0-1.63,3.2V28.79a1.92,1.92,0,0,0,1.87,2h6.76a1.92,1.92,0,0,0,1.87-2V15.22A3.87,3.87,0,0,0,29.12,12ZM26.18,2.75,26,3.87H25l-.21-1.12Zm-3.45,10.5.25-.17a3.45,3.45,0,0,0,1.45-2.85V5.37h2.13v4.86A3.46,3.46,0,0,0,28,13.08l.24.17a2.37,2.37,0,0,1,1,2v2.52h-7.5V15.22A2.39,2.39,0,0,1,22.73,13.25Zm6.52,12h-7.5v-6h7.5Zm-.37,4H22.12a.43.43,0,0,1-.37-.46v-2h7.5v2A.43.43,0,0,1,28.88,29.25Z"/></g></svg>