<?xml version="1.0" encoding="iso-8859-1"?>
<svg xmlns="http://www.w3.org/2000/svg" xmlns:xlink="http://www.w3.org/1999/xlink" version="1.1" id="Layer_1" x="0px" y="0px" viewBox="0 0 512.001 512.001" style="enable-background:new 0 0 512.001 512.001;" xml:space="preserve">
<path style="fill:#41A85F;" d="M326.699,316.995L152.99,490.704c-15.039,15.039-39.422,15.039-54.468-0.007l-77.208-77.208  C6.266,398.442,6.266,374.06,21.305,359.02l173.71-173.71c0.81-0.81,1.636-1.608,2.474-2.391  c9.55-9.024,20.488-16.301,32.291-21.631c1.968-0.887,3.95-1.719,5.968-2.488c11.131-4.311,22.948-6.924,35.049-7.686  c28.582-1.788,55.53-13.945,75.78-34.196l46.893-46.893l48.516,48.516l-46.893,46.893c-10.126,10.126-18.227,21.929-24.022,34.765  c-5.794,12.849-9.273,26.725-10.174,41.016c-0.762,12.101-3.375,23.918-7.686,35.049c-5.441,14.104-13.605,27.12-24.119,38.257  C328.306,315.359,327.51,316.183,326.699,316.995z"/>
<path style="fill:#75706B;" d="M493.659,40.609L471.4,18.35c-11.078-11.078-29.039-11.078-40.118,0l-36.578,36.578  c-4.51,4.51-4.51,11.821,0,16.331l46.045,46.045c4.51,4.51,11.821,4.51,16.331,0l36.578-36.578  C504.737,69.649,504.737,51.688,493.659,40.609z"/>
<g>
		<rect x="68.641" y="270.534" transform="matrix(-0.7071 -0.7071 0.7071 -0.7071 28.467 712.2963)" style="fill:#EFEFEF;" width="186.228" height="159.438"/>
	<path style="fill:#EFEFEF;" d="M329.09,314.52l-47.226-47.226c-9.744,0.846-19.781-2.453-27.238-9.911   c-7.458-7.458-10.756-17.493-9.911-27.238l-47.226-47.226c9.55-9.024,20.488-16.301,32.291-21.631   c1.968-0.887,3.95-1.719,5.968-2.488l40.157,40.157c9.744-0.846,19.781,2.453,27.238,9.911c7.458,7.458,10.756,17.493,9.911,27.238   l40.157,40.157C347.768,290.367,339.604,303.382,329.09,314.52z"/>
</g>
<g>
	<path style="fill:#231F20;" d="M500.76,33.509L478.5,11.25C471.245,3.996,461.6,0,451.341,0s-19.904,3.996-27.159,11.25   l-36.578,36.578c-5.342,5.342-7.281,12.809-5.842,19.704l-42.285,42.285c-18.531,18.532-43.145,29.639-69.312,31.275   c-13.075,0.823-25.876,3.631-37.994,8.325c-2.137,0.815-4.268,1.703-6.523,2.719c-12.964,5.854-24.757,13.755-35.012,23.444   C189.715,176.442,14.205,351.92,14.205,351.92c-18.93,18.93-18.926,49.736,0.007,68.669l77.208,77.209   c9.47,9.469,21.904,14.203,34.341,14.203c12.431,0,24.866-4.733,34.329-14.196c0,0,175.477-175.508,176.303-176.392   c11.403-12.081,20.213-26.056,26.179-41.524c4.712-12.166,7.52-24.966,8.346-38.044c0.819-13.022,3.951-25.645,9.304-37.516   c5.365-11.884,12.757-22.582,21.971-31.795l42.285-42.286c1.463,0.305,2.949,0.471,4.438,0.471c5.529,0,11.058-2.105,15.266-6.313   l36.578-36.578C515.735,72.851,515.735,48.484,500.76,33.509z M197.447,197.079l37.108,37.107   c0.264,11.349,4.854,22.181,12.971,30.297c8.117,8.117,18.947,12.707,30.297,12.971l37.107,37.107l-30.966,30.966L166.48,228.045   L197.447,197.079z M171.224,458.268L53.741,340.785l98.539-98.539l117.483,117.483L171.224,458.268z M105.621,483.597   l-77.208-77.208c-11.104-11.104-11.107-29.168-0.007-40.268l11.134-11.134L157.022,472.47l-11.134,11.134   C134.788,494.704,116.725,494.701,105.621,483.597z M328.53,299.759l-39.566-39.566c-1.892-1.891-4.449-2.941-7.099-2.941   c-0.289,0-0.578,0.012-0.869,0.038c-7.162,0.623-14.194-1.932-19.269-7.008c-5.076-5.075-7.63-12.099-7.008-19.269   c0.256-2.954-0.806-5.871-2.903-7.969l-39.554-39.553c6.516-5.059,13.595-9.358,21.157-12.818l35.383,35.383   c2.098,2.097,5.019,3.161,7.969,2.903c7.165-0.615,14.195,1.932,19.269,7.008c5.076,5.075,7.631,12.099,7.008,19.269   c-0.256,2.954,0.807,5.871,2.904,7.968l35.371,35.372C337.883,286.123,333.619,293.211,328.53,299.759z M387.991,158.333   c-10.935,10.935-19.707,23.631-26.076,37.738c-6.353,14.09-10.069,29.066-11.042,44.512c-0.356,5.661-1.161,11.258-2.391,16.754   l-25.271-25.271c-0.264-11.349-4.854-22.181-12.97-30.297c-8.117-8.117-18.947-12.707-30.297-12.971l-25.271-25.27   c5.495-1.229,11.091-2.034,16.748-2.391c31.049-1.943,60.261-15.125,82.255-37.117l39.792-39.793l23.407,23.407l10.907,10.907   L387.991,158.333z M486.559,73.626l-36.578,36.578c-0.586,0.587-1.543,0.587-2.13,0l-46.045-46.045   c-0.587-0.586-0.587-1.543,0-2.13l36.578-36.578c3.461-3.462,8.062-5.368,12.958-5.368s9.497,1.906,12.959,5.368l22.259,22.259   C493.704,54.855,493.704,66.481,486.559,73.626z"/>
	<!-- <path style="fill:#231F20;" d="M150.999,322.891l38.119,38.119c1.961,1.961,4.531,2.941,7.1,2.941s5.14-0.98,7.1-2.941   c3.921-3.921,3.921-10.28,0-14.202L165.2,308.689c-3.921-3.921-10.28-3.921-14.202,0   C147.076,312.611,147.078,318.969,150.999,322.891z"/>
	<path style="fill:#231F20;" d="M144.671,347.623c-3.921-3.921-10.28-3.921-14.201,0c-3.921,3.921-3.921,10.28,0,14.201   l45.205,45.204c1.961,1.961,4.531,2.941,7.1,2.941c2.57,0,5.14-0.981,7.1-2.941c3.921-3.921,3.921-10.28,0-14.201L144.671,347.623z   "/> -->
	<!-- <path style="fill:#231F20;" d="M119.182,322.133c-3.921-3.92-10.28-3.92-14.202,0c-3.921,3.921-3.921,10.28,0,14.202l0.888,0.888   c1.961,1.96,4.531,2.941,7.1,2.941c2.57,0,5.14-0.981,7.1-2.941c3.921-3.921,3.921-10.28,0-14.202L119.182,322.133z"/> -->
</g>


</svg>
